<svg height="488pt" viewBox="0 -11 488.28072 488" width="488pt" xmlns="http://www.w3.org/2000/svg"><path d="m476.347656 258.324219h-456.132812c-4.382813 0-7.933594-3.550781-7.933594-7.933594v-36.132813c0-4.382812 3.550781-7.933593 7.933594-7.933593h456.132812c4.382813 0 7.933594 3.550781 7.933594 7.933593v36.132813c0 4.382813-3.550781 7.933594-7.933594 7.933594zm0 0" fill="#eaa97d"/><path d="m476.347656 262.324219h-456.132812c-6.582032 0-11.933594-5.351563-11.933594-11.933594v-36.132813c0-6.582031 5.351562-11.933593 11.933594-11.933593h456.132812c6.582032 0 11.933594 5.351562 11.933594 11.933593v36.132813c0 6.582031-5.351562 11.933594-11.933594 11.933594zm-456.132812-52c-2.171875 0-3.933594 1.765625-3.933594 3.933593v36.132813c0 2.167969 1.761719 3.933594 3.933594 3.933594h456.132812c2.167969 0 3.933594-1.761719 3.933594-3.933594v-36.132813c0-2.167968-1.765625-3.933593-3.933594-3.933593zm0 0" fill="#3762cc"/><path d="m413.226562 64.414062c-20.785156-14.066406-42.03125-39.503906-54.328124-55.566406-5.179688-6.765625-15.550782-6.136718-19.871094 1.207032l-25.976563 44.164062c-2.433593 4.140625-7.929687 5.199219-11.75 2.285156-20.261719-15.449218-45.738281-23.472656-68.144531-27.601562-13.144531-2.984375-26.824219-4.578125-40.875-4.578125-4.253906 0-8.472656.152343-12.65625.4375-.015625 0-.035156.003906-.035156.003906-27.949219 1.910156-54.171875 10.070313-77.308594 23.074219-41.480469 23.316406-72.996094 62.238281-86.601562 108.8125l-.019532-.003906s-31.074218 68.832031 8.835938 139.890624l-.011719-.007812s3.921875 7.355469 10.964844 17.367188c0 0 21.929687 38.863281 72.382812 62.304687l-.066406-.066406c2.679687 1.289062 5.394531 2.5 8.164063 3.566406.09375.042969.1875.085937.28125.128906l-.019532-.027343c12.589844 4.816406 26.046875 7.351562 39.875 7.351562 1.058594 0 2.125-.015625 3.1875-.046875 29.90625-.828125 57.699219-13.253906 78.253906-34.988281 16.890626-17.851563 25.8125-41.210938 25.132813-65.777344-.683594-24.566406-10.890625-47.390625-28.742187-64.277344-14.746094-13.953125-34.007813-21.28125-54.335938-20.761718-20.292969.5625-39.152344 8.996093-53.101562 23.742187-11.601563 12.261719-17.734376 28.308594-17.265626 45.1875.46875 16.875 7.480469 32.554687 19.746094 44.15625 10.273438 9.71875 23.789063 14.90625 37.863282 14.464844 16.054687-.445313 30.816406-7.957031 40.753906-20.957031 2.964844-3.878907 5.25-8.273438 6.59375-12.96875 4.859375-16.976563.207031-33.890626-11.5625-45.390626-4.125-4.03125-10.511719-5.082031-15.3125-1.882812-6.769532 4.507812-7.214844 13.769531-1.578125 18.933594 1.503906 1.378906 2.941406 2.863281 3.851562 4.691406 4.375 8.738281 2.832031 18.179688-3.179687 24.539062-5.3125 5.617188-12.5 8.832032-20.230469 9.042969-7.761719.226563-15.089844-2.59375-20.707031-7.910156-10.816406-10.230469-15.046875-25.578125-10.386719-40.890625 1.316406-4.324219 3.5625-8.320312 6.441406-11.804688 9.71875-11.765624 23.652344-18.542968 38.738281-18.960937 13.902344-.417969 27.089844 4.65625 37.179688 14.203125 13.644531 12.914062 21.25 30.519531 21.269531 49.386719.019531 18.625-12.839843 43.101562-27.320312 54.8125-14.914063 12.066406-33.269531 18.882812-52.769531 19.421875-10.957032.308594-21.652344-1.394532-31.683594-4.933594-13.523438-5.355469-22.363282-13.09375-25.148438-15.753906-12.816406-12.761719-21.136718-29.199219-24.171875-35.816406l-1.777343-4.179688c-8.976563-23.109375-4.378907-57.292969-4.015626-59.859375 2.921876-15.800781 8.027344-25.191406 8.367188-25.808594 5.804688-9.21875 13.601562-18.636719 23.679688-28.125 2.898437-2.269531 8.933593-5.640625 19.675781-6.3125h288.851562c24.253907 0 43.917969-19.664062 43.917969-43.917969v-17.535156c0-26.96875-18.242188-49.667968-43.054688-56.464844zm0 0" fill="#6bdddd"/><path d="m453.65625 153.394531c-.484375-.203125-1.015625-.316406-1.578125-.332031l-24.664063.3125c-13.714843.183594-27.414062-1.421875-40.710937-4.746094l-3.449219-.863281c-2.136718-.539063-4.316406.765625-4.851562 2.910156-.539063 2.140625.765625 4.3125 2.910156 4.851563l3.449219.863281c13.28125 3.320313 26.941406 5 40.636719 5 .707031 0 1.410156-.003906 2.117187-.015625l22.460937-.285156c1.464844-2.421875 2.699219-4.996094 3.679688-7.695313zm0 0" fill="#f9a7a7"/><path d="m156.066406 391.152344c-14.066406 0-27.832031-2.511719-40.925781-7.472656-.171875-.042969-.339844-.105469-.503906-.175782-.019531-.007812-.183594-.078125-.203125-.085937-2.40625-.929688-4.988282-2.054688-7.835938-3.410157-.152344-.046874-.304687-.105468-.453125-.175781-49.796875-23.140625-72.167969-60.484375-74.074219-63.789062-7.035156-10.015625-10.949218-17.320313-11.113281-17.628907-.027343-.046874-.046875-.09375-.074219-.140624-39.789062-71.097657-10.84375-138.835938-8.921874-143.152344 13.714843-46.546875 45.898437-86.898438 88.359374-110.769532 24.421876-13.726562 50.984376-21.65625 78.957032-23.574218.039062-.003906.074218-.007813.113281-.007813 4.308594-.292969 8.660156-.445312 12.886719-.445312 14.042968 0 28.09375 1.574219 41.761718 4.675781 28.421876 5.238281 51.921876 14.777344 69.6875 28.324219.933594.710937 2.082032.980469 3.210938.753906 1.132812-.222656 2.078125-.890625 2.664062-1.886719l25.976563-44.164062c2.703125-4.597656 7.496094-7.535156 12.816406-7.859375 5.359375-.316407 10.433594 2.011719 13.679688 6.25 10.917969 14.257812 32.226562 40.164062 52.863281 54.324219 26.730469 7.636718 45.339844 32.269531 45.339844 60.140624v17.53125c0 26.417969-21.492188 47.914063-47.914063 47.914063h-288.722656c-9.625.625-14.867187 3.574219-17.203125 5.359375-9.386719 8.855469-17.066406 17.976562-22.832031 27.113281-.550781 1.019531-5.167969 9.835938-7.878907 24.503907-.179687 1.273437-4.871093 35.351562 3.808594 57.683593l1.730469 4.0625c2.84375 6.199219 10.910156 22.195313 23.3125 34.546875 2.238281 2.136719 10.746094 9.703125 23.796875 14.871094 9.542969 3.363281 19.707031 4.945312 30.101562 4.652344 18.597657-.515625 36.011719-6.921875 50.363282-18.53125 14.023437-11.339844 25.851562-35.015625 25.835937-51.699219-.019531-17.78125-7.128906-34.289063-20.019531-46.484375-9.34375-8.839844-21.539062-13.5-34.3125-13.113281-14.0625.390625-26.765625 6.613281-35.769531 17.515625-2.65625 3.210937-4.574219 6.71875-5.703125 10.421875-4.140625 13.621093-.664063 27.382812 9.308594 36.820312 4.851562 4.589844 11.132812 7.011719 17.839843 6.816407 6.667969-.183594 12.863281-2.953126 17.445313-7.796876 5.046875-5.335937 6.007812-13 2.507812-19.996093-.652344-1.308594-1.875-2.519531-2.976562-3.535157-3.648438-3.34375-5.523438-8.09375-5.144532-13.035156.382813-4.941406 3.007813-9.378906 7.210938-12.175781 6.171875-4.109375 14.71875-3.121094 20.320312 2.351563 13.085938 12.789062 17.800782 31.234374 12.617188 49.351562-1.460938 5.09375-3.902344 9.90625-7.261719 14.300781-10.574219 13.832031-26.546875 22.042969-43.820312 22.523438-15.144531.46875-29.621094-5.050781-40.726563-15.5625-13.039062-12.332031-20.496094-29.007813-20.992187-46.949219-.5-17.941406 6.023437-35.003906 18.359375-48.042969 14.683594-15.527343 34.53125-24.402343 55.890625-24.996093 21.414062-.566407 41.722656 7.214843 57.199219 21.855468 18.628906 17.621094 29.28125 41.441406 29.992187 67.074219.707031 25.632813-8.605469 50.007813-26.222656 68.632813-21.292969 22.511718-50.074219 35.382812-81.050781 36.242187-1.105469.027344-2.203126.042969-3.300782.042969zm-38.605468-15.144532c.054687.019532.109374.039063.160156.058594 13.242187 5.070313 27.199218 7.441406 41.523437 7.042969 28.839844-.800781 55.632813-12.785156 75.457031-33.742187 16.15625-17.074219 24.691407-39.417969 24.042969-62.917969-.652343-23.496094-10.417969-45.332031-27.492187-61.480469-13.925782-13.175781-32.230469-20.160156-51.488282-19.667969-19.214843.53125-37.078124 8.519531-50.292968 22.492188-10.871094 11.484375-16.613282 26.519531-16.175782 42.324219.441407 15.808593 7.007813 30.496093 18.496094 41.363281 9.546875 9.035156 21.996094 13.785156 34.992188 13.375 14.863281-.410157 28.597656-7.476563 37.699218-19.382813 2.753907-3.601562 4.746094-7.519531 5.929688-11.644531 4.363281-15.242187.433594-30.730469-10.515625-41.425781-2.921875-2.851563-7.25-3.449219-10.296875-1.417969-2.167969 1.445313-3.472656 3.625-3.664062 6.132813-.191407 2.472656.746093 4.851562 2.570312 6.523437 1.644531 1.507813 3.492188 3.378906 4.726562 5.851563 4.96875 9.933593 3.457032 21.347656-3.851562 29.074218-6.046875 6.394532-14.230469 10.050782-23.027344 10.296875-8.796875.277344-17.164062-2.945312-23.566406-9.003906-12.226562-11.566406-16.511719-28.371094-11.460938-44.960937 1.4375-4.71875 3.855469-9.15625 7.1875-13.1875 10.496094-12.707032 25.308594-19.957032 41.707032-20.414063 14.953125-.457031 29.140625 4.984375 40.039062 15.292969 14.503906 13.722656 22.5 32.289062 22.523438 52.289062.019531 19.078125-12.902344 45.066406-28.804688 57.929688-15.722656 12.71875-34.804687 19.742187-55.171875 20.304687-11.351562.332031-22.507812-1.414062-33.125-5.15625-14.148437-5.601562-23.296875-13.5-26.582031-16.636719-13.386719-13.332031-21.972656-30.34375-25.042969-37.042968l-1.824219-4.28125c-9.3125-23.964844-4.835937-58.164063-4.292968-61.984375 3.035156-16.449219 8.246094-26.140625 8.832031-27.1875.035156-.066407.070313-.128907.109375-.1875 6.164062-9.789063 14.34375-19.515625 24.320312-28.910157.089844-.085937.183594-.164062.28125-.242187 3.667969-2.867187 10.445313-6.4375 21.886719-7.152344.085938-.003906.167969-.007812.25-.007812h288.855469c22.007812 0 39.914062-17.90625 39.914062-39.917969v-17.53125c0-24.503906-16.492187-46.136719-40.109374-52.605469-.421876-.117187-.820313-.300781-1.183594-.542969-20.648438-13.976562-41.453125-38.410156-55.261719-56.449218-1.648437-2.152344-4.128906-3.289063-6.84375-3.125-2.699219.164062-5.035156 1.597656-6.40625 3.929687l-25.976563 44.164063c-1.738281 2.949218-4.660156 5.019531-8.015624 5.679687-3.367188.660157-6.871094-.15625-9.609376-2.242187-16.753906-12.777344-39.113281-21.8125-66.445312-26.851563-13.246094-3.003906-26.699219-4.507812-40.148438-4.507812-4.046874 0-8.214843.144531-12.382812.425781-26.828125 1.835938-52.273438 9.429688-75.65625 22.574219-40.773438 22.921875-71.652344 61.714843-84.71875 106.445312-.085938.292969-.203125.570313-.347656.828125-2.148438 5.078125-28.242188 70.003906 8.8125 135.976563.046875.089843.097656.179687.136718.273437.675782 1.234375 4.433594 7.980469 10.597657 16.742188.074219.105468.144531.222656.210937.332031.210938.378906 21.832032 37.785156 70.023438 60.390625.1875.058594.367187.128906.542968.214844 2.875 1.382812 5.449219 2.507812 7.867188 3.441406.015625.011719.046875.023438.085938.039062zm0 0" fill="#3762cc"/><path d="m446.28125 100.648438c0 18.222656-14.773438 33-33 33s-33-14.777344-33-33c0-18.226563 14.773438-33 33-33s33 14.773437 33 33zm0 0" fill="#b9befc"/><path d="m160.03125 165.125 15.109375 38.851562c.597656 1.535157 2.074219 2.546876 3.726563 2.546876h19.136718c1.894532 0 3.425782-1.53125 3.425782-3.421876 0-5.730468-4.648438-10.375-10.378907-10.375h-2.921875c-1.683594 0-3.183594-1.054687-3.761718-2.636718l-14.578126-40.085938c-1.523437-4.199218-6.367187-6.128906-10.363281-4.132812-3.535156 1.773437-5.082031 5.992187-3.523437 9.628906zm0 0" fill="#b9befc"/><path d="m280.28125 190.324219h-27.367188c-1.421874 0-2.390624-1.445313-1.847656-2.761719l11.214844-27.238281c3.039062-7.089844-1.429688-15.144531-9.054688-16.316407l-1.101562-.167968c-5.6875-.875-11.175781 2.476562-12.992188 7.933594l-.851562 2.550781-12.8125 41.648437c-1.582031 5.144532 2.265625 10.351563 7.644531 10.351563h55.167969c2.210938 0 4-1.789063 4-4 0-6.625-5.371094-12-12-12zm0 0" fill="#b9befc"/><path d="m444.28125 92.648438c0 11.597656-9.402344 21-21 21s-21-9.402344-21-21c0-11.597657 9.402344-21 21-21s21 9.402343 21 21zm0 0" fill="#e0ebfc"/><path d="m442.28125 88.648438c0 7.179687-5.820312 13-13 13s-13-5.820313-13-13c0-7.179688 5.820312-13 13-13s13 5.820312 13 13zm0 0" fill="#4671c6"/><g fill="#f9cfcf"><path d="m275.96875 385.492188 51.875 57.34375c11.835938 13.082031 27.367188 19.578124 42.878906 19.503906 15.507813.074218 31.039063-6.421875 42.875-19.503906l51.875-57.34375c23.535156-26.015626 23.535156-68.191407 0-94.207032s-61.691406-26.015625-85.222656 0l-4.207031 4.648438c-2.9375 3.25-7.703125 3.25-10.640625 0l-4.207032-4.648438c-23.535156-26.015625-61.691406-26.015625-85.222656 0-23.539062 26.015625-23.539062 68.195313-.003906 94.207032zm0 0"/><path d="m275.96875 385.492188 51.875 57.34375c11.835938 13.082031 27.367188 19.578124 42.878906 19.503906 15.507813.074218 31.039063-6.421875 42.875-19.503906l51.875-57.34375c23.535156-26.015626 23.535156-68.191407 0-94.207032s-61.691406-26.015625-85.222656 0l-4.207031 4.648438c-2.9375 3.25-7.703125 3.25-10.640625 0l-4.207032-4.648438c-23.535156-26.015625-61.691406-26.015625-85.222656 0-23.539062 26.015625-23.539062 68.195313-.003906 94.207032zm0 0"/><path d="m420.957031 349.839844h-22.242187c-3.785156 0-6.851563-3.066406-6.851563-6.847656v-22.246094c0-3.785156-3.066406-6.847656-6.847656-6.847656h-28.589844c-3.78125 0-6.847656 3.066406-6.847656 6.847656v22.246094c0 3.78125-3.070313 6.847656-6.851563 6.847656h-22.242187c-3.785156 0-6.851563 3.070312-6.851563 6.851562v28.585938c0 3.785156 3.066407 6.851562 6.851563 6.851562h22.242187c3.785157 0 6.851563 3.066406 6.851563 6.851563v22.242187c0 3.785156 3.066406 6.851563 6.847656 6.851563h28.589844c3.78125 0 6.847656-3.070313 6.847656-6.851563v-22.242187c0-3.785157 3.070313-6.851563 6.851563-6.851563h22.242187c3.785157 0 6.851563-3.066406 6.851563-6.847656v-28.589844c.003906-3.78125-3.066406-6.851562-6.851563-6.851562zm0 0"/><path d="m420.957031 349.839844h-22.242187c-3.785156 0-6.851563-3.066406-6.851563-6.847656v-22.246094c0-3.785156-3.066406-6.847656-6.847656-6.847656h-28.589844c-3.78125 0-6.847656 3.066406-6.847656 6.847656v22.246094c0 3.78125-3.070313 6.847656-6.851563 6.847656h-22.242187c-3.785156 0-6.851563 3.070312-6.851563 6.851562v28.585938c0 3.785156 3.066407 6.851562 6.851563 6.851562h22.242187c3.785157 0 6.851563 3.066406 6.851563 6.851563v22.242187c0 3.785156 3.066406 6.851563 6.847656 6.851563h28.589844c3.78125 0 6.847656-3.070313 6.847656-6.851563v-22.242187c0-3.785157 3.070313-6.851563 6.851563-6.851563h22.242187c3.785157 0 6.851563-3.066406 6.851563-6.847656v-28.589844c.003906-3.78125-3.066406-6.851562-6.851563-6.851562zm0 0"/><path d="m275.96875 385.492188 51.875 57.34375c11.835938 13.082031 27.367188 19.578124 42.878906 19.503906 15.507813.074218 31.039063-6.421875 42.875-19.503906l51.875-57.34375c23.535156-26.015626 23.535156-68.191407 0-94.207032s-61.691406-26.015625-85.222656 0l-4.207031 4.648438c-2.9375 3.25-7.703125 3.25-10.640625 0l-4.207032-4.648438c-23.535156-26.015625-61.691406-26.015625-85.222656 0-23.539062 26.015625-23.539062 68.195313-.003906 94.207032zm0 0"/><path d="m275.96875 385.492188 51.875 57.34375c11.835938 13.082031 27.367188 19.578124 42.878906 19.503906 15.507813.074218 31.039063-6.421875 42.875-19.503906l51.875-57.34375c23.535156-26.015626 23.535156-68.191407 0-94.207032s-61.691406-26.015625-85.222656 0l-4.207031 4.648438c-2.9375 3.25-7.703125 3.25-10.640625 0l-4.207032-4.648438c-23.535156-26.015625-61.691406-26.015625-85.222656 0-23.539062 26.015625-23.539062 68.195313-.003906 94.207032zm0 0"/></g><path d="m420.957031 349.839844h-22.242187c-3.785156 0-6.851563-3.066406-6.851563-6.847656v-22.246094c0-3.785156-3.066406-6.847656-6.847656-6.847656h-28.589844c-3.78125 0-6.847656 3.066406-6.847656 6.847656v22.246094c0 3.78125-3.070313 6.847656-6.851563 6.847656h-22.242187c-3.785156 0-6.851563 3.070312-6.851563 6.851562v28.585938c0 3.785156 3.066407 6.851562 6.851563 6.851562h22.242187c3.785157 0 6.851563 3.066406 6.851563 6.851563v22.242187c0 3.785156 3.066406 6.851563 6.847656 6.851563h28.589844c3.78125 0 6.847656-3.070313 6.847656-6.851563v-22.242187c0-3.785157 3.070313-6.851563 6.851563-6.851563h22.242187c3.785157 0 6.851563-3.066406 6.851563-6.847656v-28.589844c.003906-3.78125-3.066406-6.851562-6.851563-6.851562zm0 0" fill="#f9a7a7"/><path d="m420.957031 349.839844h-22.242187c-3.785156 0-6.851563-3.066406-6.851563-6.847656v-22.246094c0-3.785156-3.066406-6.847656-6.847656-6.847656h-28.589844c-3.78125 0-6.847656 3.066406-6.847656 6.847656v22.246094c0 3.78125-3.070313 6.847656-6.851563 6.847656h-22.242187c-3.785156 0-6.851563 3.070312-6.851563 6.851562v28.585938c0 3.785156 3.066407 6.851562 6.851563 6.851562h22.242187c3.785157 0 6.851563 3.066406 6.851563 6.851563v22.242187c0 3.785156 3.066406 6.851563 6.847656 6.851563h28.589844c3.78125 0 6.847656-3.070313 6.847656-6.851563v-22.242187c0-3.785157 3.070313-6.851563 6.851563-6.851563h22.242187c3.785157 0 6.851563-3.066406 6.851563-6.847656v-28.589844c.003906-3.78125-3.066406-6.851562-6.851563-6.851562zm0 0" fill="#f9a7a7"/><path d="m198.003906 210.527344h-19.136718c-3.324219 0-6.25-2.003906-7.457032-5.101563l-15.082031-38.785156-4.097656-9.5625c-2.390625-5.574219-.015625-12.066406 5.414062-14.78125 2.921875-1.464844 6.339844-1.605469 9.375-.394531 3.039063 1.207031 5.417969 3.664062 6.535157 6.738281l14.578124 40.085937h2.921876c7.925781 0 14.375 6.445313 14.375 14.375 0 4.09375-3.332032 7.425782-7.425782 7.425782zm-35.234375-61.445313c-.527343 0-1.054687.121094-1.546875.371094-1.640625.820313-2.363281 2.785156-1.640625 4.472656l4.125 9.625c.023438.039063.039063.082031.054688.125l15.109375 38.847657h18.539062c-.292968-3.246094-3.03125-5.796876-6.351562-5.796876h-2.925782c-3.351562 0-6.371093-2.121093-7.515624-5.269531l-14.578126-40.085937c-.34375-.945313-1.042968-1.667969-1.976562-2.039063-.421875-.167969-.859375-.25-1.292969-.25zm0 0" fill="#3762cc"/><path d="m288.28125 210.324219h-55.167969c-3.847656 0-7.367187-1.773438-9.652343-4.871094-2.285157-3.09375-2.949219-6.976563-1.816407-10.65625l13.695313-44.289063c2.441406-7.332031 9.75-11.800781 17.394531-10.621093l1.097656.167969c4.871094.75 9.03125 3.648437 11.417969 7.953124 2.390625 4.304688 2.648438 9.367188.707031 13.894532l-10.050781 24.421875h24.375c8.824219 0 16 7.179687 16 16 0 4.414062-3.589844 8-8 8zm-37.964844-62.625c-3.316406 0-6.3125 2.105469-7.386718 5.335937l-.851563 2.554688-12.789063 41.558594c-.375 1.226562-.15625 2.519531.609376 3.550781.761718 1.035156 1.933593 1.625 3.214843 1.625h55.167969c0-4.410157-3.589844-8-8-8h-27.367188c-2.003906 0-3.871093-.996094-4.984374-2.664063-1.117188-1.664062-1.328126-3.769531-.5625-5.625l11.214843-27.234375c.980469-2.289062.851563-4.789062-.328125-6.914062-1.179687-2.125-3.234375-3.554688-5.636718-3.925781l-1.097657-.167969c-.40625-.058594-.808593-.09375-1.203125-.09375zm0 0" fill="#3762cc"/><path d="m370.996094 466.34375c-.199219 0-.390625 0-.585938 0-17.207031 0-33.378906-7.386719-45.535156-20.824219l-51.875-57.34375c-24.832031-27.453125-24.832031-72.121093 0-99.574219 12.152344-13.429687 28.339844-20.828124 45.582031-20.828124 17.242188 0 33.425781 7.394531 45.578125 20.828124l4.203125 4.648438c1.308594 1.445312 3.40625 1.445312 4.710938 0l4.203125-4.648438c12.152344-13.429687 28.339844-20.828124 45.582031-20.828124s33.425781 7.394531 45.578125 20.828124c24.832031 27.453126 24.832031 72.125 0 99.574219l-51.875 57.34375c-12.152344 13.433594-28.328125 20.824219-45.566406 20.824219zm-.296875-8h.253906c14.992187 0 29.058594-6.453125 39.675781-18.1875l51.875-57.34375c22.160156-24.496094 22.160156-64.351562 0-88.84375-10.613281-11.730469-24.691406-18.195312-39.644531-18.195312-14.949219 0-29.03125 6.460937-39.644531 18.195312l-4.207032 4.648438c-2.1875 2.417968-5.128906 3.753906-8.285156 3.753906s-6.101562-1.332032-8.289062-3.753906l-4.207032-4.648438c-10.617187-11.730469-24.695312-18.195312-39.644531-18.195312-14.953125 0-29.035156 6.460937-39.648437 18.195312-22.15625 24.492188-22.15625 64.347656 0 88.84375l51.878906 57.34375c10.613281 11.734375 24.683594 18.1875 39.636719 18.1875zm0 0" fill="#3762cc"/><path d="m370.996094 466.34375c-.199219 0-.390625 0-.585938 0-17.207031 0-33.378906-7.386719-45.535156-20.824219l-51.875-57.34375c-24.832031-27.453125-24.832031-72.121093 0-99.574219 12.152344-13.429687 28.339844-20.828124 45.582031-20.828124 17.242188 0 33.425781 7.394531 45.578125 20.828124l4.203125 4.648438c1.308594 1.445312 3.40625 1.445312 4.710938 0l4.203125-4.648438c12.152344-13.429687 28.339844-20.828124 45.582031-20.828124s33.425781 7.394531 45.578125 20.828124c24.832031 27.453126 24.832031 72.125 0 99.574219l-51.875 57.34375c-12.152344 13.433594-28.328125 20.824219-45.566406 20.824219zm-.296875-8h.253906c14.992187 0 29.058594-6.453125 39.675781-18.1875l51.875-57.34375c22.160156-24.496094 22.160156-64.351562 0-88.84375-10.613281-11.730469-24.691406-18.195312-39.644531-18.195312-14.949219 0-29.03125 6.460937-39.644531 18.195312l-4.207032 4.648438c-2.1875 2.417968-5.128906 3.753906-8.285156 3.753906s-6.101562-1.332032-8.289062-3.753906l-4.207032-4.648438c-10.617187-11.730469-24.695312-18.195312-39.644531-18.195312-14.953125 0-29.035156 6.460937-39.648437 18.195312-22.15625 24.492188-22.15625 64.347656 0 88.84375l51.878906 57.34375c10.613281 11.734375 24.683594 18.1875 39.636719 18.1875zm0 0" fill="#3762cc"/></svg>